<?xml version="1.0" encoding="utf-8"?>
<!-- Generator: Adobe Illustrator 25.2.0, SVG Export Plug-In . SVG Version: 6.00 Build 0)  -->
<svg version="1.1" id="_x34_" xmlns="http://www.w3.org/2000/svg" xmlns:xlink="http://www.w3.org/1999/xlink" x="0px" y="0px"
	 viewBox="0 0 1920 1080" style="enable-background:new 0 0 1920 1080;" xml:space="preserve">
<style type="text/css">
	.st0{fill:none;stroke:#FF0000;stroke-width:5;stroke-miterlimit:10;}
</style>
<path class="st0" d="M1753.8-112.5c130.1,17.6,182.2,38.9,203.2,48c48.7,21.3,214.9,96.4,316.7,295.7
	c92.6,181.2,76.5,355.4,69.7,415.6c-6.3,59.1-28.3,240.9-162.2,394.3c-145.7,166.8-331.3,195-393.2,204.1c-38,5.9-66.7,6.4-84.3,6.9
	c-273.8,6.9-556.4,0.5-707.9,0c-293.8-1.1-414.1,20.2-753.7,1.6c-19-1.1-58-0.5-108.7-9.1c-9.7-1.6-172-29.8-296.7-122.6
	c-144.2-107.1-283-334.6-263.5-605.9C-406,222.2-209.2,8-32.8-61.8c109.6-43.7,263.1-51.7,305-53.8c47.7-2.7,66.7-1.1,229.5,0
	c0,0,79.9,0,238.7,0c161.3,0,322.5,3.7,483.8,0C1493.6-121,1573-137,1753.8-112.5z"/>
</svg>
