<?xml version="1.0" encoding="UTF-8" standalone="no"?>
<svg
   xmlns:dc="http://purl.org/dc/elements/1.1/"
   xmlns:cc="http://creativecommons.org/ns#"
   xmlns:rdf="http://www.w3.org/1999/02/22-rdf-syntax-ns#"
   xmlns:svg="http://www.w3.org/2000/svg"
   xmlns="http://www.w3.org/2000/svg"
   xmlns:sodipodi="http://sodipodi.sourceforge.net/DTD/sodipodi-0.dtd"
   xmlns:inkscape="http://www.inkscape.org/namespaces/inkscape"
   width="1024"
   height="427"
   viewBox="0 0 270.93333 112.97709"
   version="1.1"
   id="svg43"
   inkscape:version="1.0.2-2 (e86c870879, 2021-01-15)"
   sodipodi:docname="p1.svg">
  <defs
     id="defs37" />
  <sodipodi:namedview
     id="base"
     pagecolor="#ffffff"
     bordercolor="#666666"
     borderopacity="1.0"
     inkscape:pageopacity="0.0"
     inkscape:pageshadow="2"
     inkscape:zoom="1.4"
     inkscape:cx="475.50744"
     inkscape:cy="195.4917"
     inkscape:document-units="mm"
     inkscape:current-layer="layer1"
     inkscape:document-rotation="0"
     showgrid="false"
     units="px"
     inkscape:window-width="1920"
     inkscape:window-height="1057"
     inkscape:window-x="1016"
     inkscape:window-y="-8"
     inkscape:window-maximized="1" />
  <metadata
     id="metadata40">
    <rdf:RDF>
      <cc:Work
         rdf:about="">
        <dc:format>image/svg+xml</dc:format>
        <dc:type
           rdf:resource="http://purl.org/dc/dcmitype/StillImage" />
        <dc:title></dc:title>
      </cc:Work>
    </rdf:RDF>
  </metadata>
  <g
     inkscape:label="Layer 1"
     inkscape:groupmode="layer"
     id="layer1">
    <path
       id="XMLID_19_"
       class="st0"
       d="m 217.84522,21.540653 c 9.3377,0 18.14182,3.673518 24.81162,10.343306 6.66978,6.66979 10.34329,15.473905 10.34329,24.81161 0,9.337714 -3.67351,18.141829 -10.34329,24.811619 -6.6698,6.669789 -15.47392,10.343307 -24.81162,10.343307 H 207.59683 197.34844 187.10005 176.85166 166.60327 156.35489 146.10651 135.85812 125.60973 115.36134 105.11295 94.864568 84.616181 74.367793 64.119406 53.871019 c -9.337706,0 -18.141826,-3.673518 -24.811616,-10.343307 -6.669788,-6.66979 -10.343301,-15.473905 -10.343301,-24.811619 0,-9.337705 3.673513,-18.14182 10.343301,-24.81161 6.66979,-6.669788 15.47391,-10.343306 24.811616,-10.343306 h 10.248387 10.248387 10.248387 10.248388 10.248382 10.24839 10.24839 10.24839 10.24838 10.24839 10.24838 10.24839 10.24839 10.24839 10.24839 10.24839 m 0,-0.820891 H 207.59683 197.34844 187.10005 176.85166 166.60327 156.35489 146.10651 135.85812 125.60973 115.36134 105.11295 94.864568 84.616181 74.367793 64.119406 53.871019 c -9.54293,0 -18.572797,3.755601 -25.386243,10.58957 -6.833969,6.833967 -10.589572,15.843316 -10.589572,25.386237 0,9.54293 3.755603,18.572803 10.589572,25.386247 6.833968,6.833968 15.843313,10.58957 25.386243,10.58957 h 10.248387 10.248387 10.248387 10.248388 10.248382 10.24839 10.24839 10.24839 10.24838 10.24839 10.24838 10.24839 10.24839 10.24839 10.24839 10.24839 c 9.54293,0 18.5728,-3.755602 25.38623,-10.58957 6.83398,-6.833968 10.58958,-15.843317 10.58958,-25.386247 0,-9.542921 -3.7556,-18.572794 -10.58958,-25.386237 -6.83395,-6.833969 -15.8433,-10.58957 -25.38623,-10.58957 z"
       sodipodi:nodetypes="csssscccccccccccccccsssssccccccccccccccccscccccccccccccccscscscccccccccccccccscscs"
       style="stroke-width:0.205224" />
  </g>
  <style
     type="text/css"
     id="style10">
	.st0{fill:#E60012;}
</style>
  <style
     type="text/css"
     id="style72">
	.st0{fill:#E60012;}
</style>
  <style
     type="text/css"
     id="style94">
	.st0{fill:#E60012;}
</style>
  <style
     type="text/css"
     id="style116">
	.st0{fill:#E60012;}
</style>
</svg>
