<?xml version="1.0" encoding="UTF-8" standalone="no"?>
<svg
   xmlns:dc="http://purl.org/dc/elements/1.1/"
   xmlns:cc="http://creativecommons.org/ns#"
   xmlns:rdf="http://www.w3.org/1999/02/22-rdf-syntax-ns#"
   xmlns:svg="http://www.w3.org/2000/svg"
   xmlns="http://www.w3.org/2000/svg"
   xmlns:sodipodi="http://sodipodi.sourceforge.net/DTD/sodipodi-0.dtd"
   xmlns:inkscape="http://www.inkscape.org/namespaces/inkscape"
   width="1024"
   height="427"
   viewBox="0 0 270.93333 112.97709"
   version="1.1"
   id="svg43"
   sodipodi:docname="p2.svg"
   inkscape:version="1.0.2-2 (e86c870879, 2021-01-15)">
  <defs
     id="defs37" />
  <sodipodi:namedview
     id="base"
     pagecolor="#ffffff"
     bordercolor="#666666"
     borderopacity="1.0"
     inkscape:pageopacity="0.0"
     inkscape:pageshadow="2"
     inkscape:zoom="1.4"
     inkscape:cx="475.50744"
     inkscape:cy="195.4917"
     inkscape:document-units="mm"
     inkscape:current-layer="layer1"
     inkscape:document-rotation="0"
     showgrid="false"
     units="px"
     inkscape:window-width="1920"
     inkscape:window-height="1057"
     inkscape:window-x="1016"
     inkscape:window-y="-8"
     inkscape:window-maximized="1" />
  <metadata
     id="metadata40">
    <rdf:RDF>
      <cc:Work
         rdf:about="">
        <dc:format>image/svg+xml</dc:format>
        <dc:type
           rdf:resource="http://purl.org/dc/dcmitype/StillImage" />
        <dc:title></dc:title>
      </cc:Work>
    </rdf:RDF>
  </metadata>
  <g
     inkscape:label="Layer 1"
     inkscape:groupmode="layer"
     id="layer1">
    <path
       id="XMLID_29_"
       class="st0"
       d="m 217.84522,15.712292 c 10.87689,0 21.15861,4.289187 28.9161,12.046662 7.77799,7.778 12.04665,18.039221 12.04665,28.916101 0,10.876888 -4.28918,21.158625 -12.04665,28.9161 -7.77801,7.777999 -18.03921,12.046662 -28.9161,12.046662 H 207.59683 197.34844 187.10005 176.85166 166.60327 156.35489 146.10651 135.85812 125.60973 115.36134 105.11296 94.864568 84.616181 74.367794 64.119406 53.871019 c -10.87689,0 -21.158621,-4.289186 -28.9161,-12.046662 C 17.176918,77.83368 12.908252,67.572467 12.908252,56.695578 c 0,-10.876888 4.289189,-21.158624 12.046667,-28.9161 7.777994,-7.777999 18.03921,-12.046664 28.9161,-12.046664 h 10.248387 10.248387 10.248388 10.248387 10.248392 10.24838 10.24839 10.24839 10.24838 10.24839 10.24838 10.24839 10.24839 10.24839 10.24839 10.24839 m 0,-0.841418 H 207.59683 197.34844 187.10005 176.85166 166.60327 156.35489 146.10651 135.85812 125.60973 115.36134 105.11296 94.864568 84.616181 74.367794 64.119406 53.871019 c -11.102635,0 -21.589597,4.371277 -29.511256,12.292931 -7.921652,7.921652 -12.292931,18.408615 -12.292931,29.511251 0,11.102637 4.371279,21.589598 12.292931,29.511252 7.921659,7.921654 18.408621,12.292929 29.511256,12.292929 h 10.248387 10.248387 10.248388 10.248387 10.248392 10.24838 10.24839 10.24839 10.24838 10.24839 10.24838 10.24839 10.24839 10.24839 10.24839 10.24839 c 11.10263,0 21.58959,-4.371275 29.51124,-12.292929 7.92166,-7.921654 12.29293,-18.408615 12.29293,-29.511252 0,-11.102636 -4.37127,-21.589599 -12.29293,-29.511251 -7.94217,-7.921654 -18.40861,-12.292931 -29.51124,-12.292931 z"
       sodipodi:nodetypes="csssscccccccccccccccscsssccccccccccccccccscccccccccccccccssssscccccccccccccccssscs"
       style="stroke-width:0.205224" />
  </g>
  <style
     type="text/css"
     id="style10">
	.st0{fill:#E60012;}
</style>
  <style
     type="text/css"
     id="style72">
	.st0{fill:#E60012;}
</style>
  <style
     type="text/css"
     id="style94">
	.st0{fill:#E60012;}
</style>
  <style
     type="text/css"
     id="style116">
	.st0{fill:#E60012;}
</style>
</svg>
