<?xml version="1.0" encoding="UTF-8" standalone="no"?>
<svg
   xmlns:dc="http://purl.org/dc/elements/1.1/"
   xmlns:cc="http://creativecommons.org/ns#"
   xmlns:rdf="http://www.w3.org/1999/02/22-rdf-syntax-ns#"
   xmlns:svg="http://www.w3.org/2000/svg"
   xmlns="http://www.w3.org/2000/svg"
   xmlns:sodipodi="http://sodipodi.sourceforge.net/DTD/sodipodi-0.dtd"
   xmlns:inkscape="http://www.inkscape.org/namespaces/inkscape"
   width="1024"
   height="427"
   viewBox="0 0 270.93333 112.97709"
   version="1.1"
   id="svg43"
   sodipodi:docname="p3.svg"
   inkscape:version="1.0.2-2 (e86c870879, 2021-01-15)">
  <defs
     id="defs37" />
  <sodipodi:namedview
     id="base"
     pagecolor="#ffffff"
     bordercolor="#666666"
     borderopacity="1.0"
     inkscape:pageopacity="0.0"
     inkscape:pageshadow="2"
     inkscape:zoom="1.4"
     inkscape:cx="475.50744"
     inkscape:cy="195.4917"
     inkscape:document-units="mm"
     inkscape:current-layer="layer1"
     inkscape:document-rotation="0"
     showgrid="false"
     units="px"
     inkscape:window-width="1920"
     inkscape:window-height="1057"
     inkscape:window-x="1016"
     inkscape:window-y="-8"
     inkscape:window-maximized="1" />
  <metadata
     id="metadata40">
    <rdf:RDF>
      <cc:Work
         rdf:about="">
        <dc:format>image/svg+xml</dc:format>
        <dc:type
           rdf:resource="http://purl.org/dc/dcmitype/StillImage" />
        <dc:title></dc:title>
      </cc:Work>
    </rdf:RDF>
  </metadata>
  <g
     inkscape:label="Layer 1"
     inkscape:groupmode="layer"
     id="layer1">
    <path
       id="XMLID_21_"
       class="st0"
       d="m 217.84522,9.9044473 c 12.43658,0 24.17541,4.8843387 33.0411,13.7500257 8.86569,8.865694 13.75003,20.60451 13.75003,33.041105 0,12.436594 -4.88434,24.175421 -13.75003,33.041114 -8.86569,8.865687 -20.60452,13.750038 -33.0411,13.750038 H 207.59683 197.34844 187.10005 176.85166 166.60327 156.35489 146.10651 135.85812 125.60973 115.36134 105.11296 94.864568 84.616181 74.367794 64.119406 53.871019 C 41.434431,103.48673 29.6956,98.602379 20.829911,89.736692 11.964222,80.870999 7.0798904,69.132172 7.0798904,56.695578 7.0798904,44.258983 11.964222,32.520167 20.829911,23.654473 29.6956,14.788786 41.434431,9.9044473 53.871019,9.9044473 h 10.248387 10.248387 10.248388 10.248387 10.248392 10.24838 10.24839 10.24839 10.24838 10.24839 10.24838 10.24839 10.24839 10.24839 10.24839 10.24839 m 0,-0.8209027 H 207.59683 197.34844 187.10005 176.85166 166.60327 156.35489 146.10651 135.85812 125.60973 115.36134 105.11296 94.864568 84.616181 74.367794 64.119406 53.871019 c -12.662333,0 -24.585863,4.9664324 -33.615734,13.9963004 -9.02987,9.029872 -13.9962965,20.9534 -13.9962965,33.615733 0,12.662334 4.9664265,24.58587 13.9962965,33.615733 9.029871,9.029875 20.953401,13.996309 33.615734,13.996309 h 10.248387 10.248387 10.248388 10.248387 10.248392 10.24838 10.24839 10.24839 10.24838 10.24839 10.24838 10.24839 10.24839 10.24839 10.24839 10.24839 c 12.66232,0 24.58586,-4.966434 33.61573,-13.996309 9.02987,-9.029863 13.99629,-20.953399 13.99629,-33.615733 0,-12.662333 -4.96642,-24.585861 -13.99629,-33.615733 C 242.43108,14.049977 230.48702,9.0835446 217.84522,9.0835446 Z"
       sodipodi:nodetypes="csssscccccccccccccccsssssccccccccccccccccscccccccccccccccssssscccccccccccccccsssss"
       style="stroke-width:0.205224" />
  </g>
  <style
     type="text/css"
     id="style10">
	.st0{fill:#E60012;}
</style>
  <style
     type="text/css"
     id="style72">
	.st0{fill:#E60012;}
</style>
  <style
     type="text/css"
     id="style94">
	.st0{fill:#E60012;}
</style>
  <style
     type="text/css"
     id="style116">
	.st0{fill:#E60012;}
</style>
</svg>
