<?xml version="1.0" encoding="UTF-8" standalone="no"?>
<svg
   xmlns:dc="http://purl.org/dc/elements/1.1/"
   xmlns:cc="http://creativecommons.org/ns#"
   xmlns:rdf="http://www.w3.org/1999/02/22-rdf-syntax-ns#"
   xmlns:svg="http://www.w3.org/2000/svg"
   xmlns="http://www.w3.org/2000/svg"
   xmlns:sodipodi="http://sodipodi.sourceforge.net/DTD/sodipodi-0.dtd"
   xmlns:inkscape="http://www.inkscape.org/namespaces/inkscape"
   width="1024"
   height="427"
   viewBox="0 0 270.93333 112.97709"
   version="1.1"
   id="svg43"
   sodipodi:docname="p4.svg"
   inkscape:version="1.0.2-2 (e86c870879, 2021-01-15)">
  <defs
     id="defs37" />
  <sodipodi:namedview
     id="base"
     pagecolor="#ffffff"
     bordercolor="#666666"
     borderopacity="1.0"
     inkscape:pageopacity="0.0"
     inkscape:pageshadow="2"
     inkscape:zoom="0.7"
     inkscape:cx="449.33063"
     inkscape:cy="221.52376"
     inkscape:document-units="mm"
     inkscape:current-layer="layer1"
     inkscape:document-rotation="0"
     showgrid="false"
     units="px"
     inkscape:window-width="1920"
     inkscape:window-height="1057"
     inkscape:window-x="1016"
     inkscape:window-y="-8"
     inkscape:window-maximized="1" />
  <metadata
     id="metadata40">
    <rdf:RDF>
      <cc:Work
         rdf:about="">
        <dc:format>image/svg+xml</dc:format>
        <dc:type
           rdf:resource="http://purl.org/dc/dcmitype/StillImage" />
        <dc:title></dc:title>
      </cc:Work>
    </rdf:RDF>
  </metadata>
  <g
     inkscape:label="Layer 1"
     inkscape:groupmode="layer"
     id="layer1">
    <path
       id="XMLID_16_"
       class="st0"
       d="m 217.84522,4.0760679 c 13.99629,0 27.19222,5.4794914 37.1456,15.4534001 9.9739,9.973894 15.45337,23.169818 15.45337,37.145587 0,13.996291 -5.47947,27.192216 -15.45337,37.145587 -9.97391,9.973928 -23.16983,15.453418 -37.1456,15.453418 H 207.59683 197.34844 187.10005 176.85166 166.60327 156.35489 146.10651 135.85812 125.60973 115.36134 105.11296 94.864568 74.367794 53.871019 c -13.996292,0 -27.192215,-5.47949 -37.14559,-15.453418 C 6.7515285,83.846747 1.272044,70.650823 1.272044,56.675055 c 0,-13.996291 5.4794845,-27.192216 15.453385,-37.145587 9.9739,-9.9739087 23.169821,-15.4534001 37.14559,-15.4534001 h 10.248387 10.248388 10.248387 10.248387 10.248392 10.24838 10.24839 10.24839 10.24839 10.24838 10.24838 10.24839 10.24839 10.24839 10.24839 10.24839 m 0,-0.8208945 H 207.59683 197.34844 187.10005 176.85166 166.60327 156.35489 146.10651 135.85812 125.60973 115.36134 105.11296 94.864568 84.616181 74.367794 64.119406 53.871019 C 39.669506,3.2551734 26.268354,8.8372759 16.13028,18.95483 6.0127203,29.072389 0.4306181,42.473529 0.4306181,56.695578 c 0,14.201516 5.5821022,27.602666 15.6996619,37.740738 C 26.247838,104.5539 39.648981,110.136 53.871019,110.136 h 20.496774 20.496775 10.248392 10.24838 10.24839 10.24839 10.24838 10.24839 10.24838 10.24839 10.24839 10.24839 10.24839 10.24839 c 14.20152,0 27.60266,-5.5821 37.74074,-15.699684 10.11756,-10.117548 15.69965,-23.518698 15.69965,-37.740738 0,-14.201525 -5.58209,-27.602666 -15.69965,-37.740748 C 245.44788,8.8372759 232.04674,3.2551734 217.84522,3.2551734 Z"
       sodipodi:nodetypes="ccscscccccccccccccscscsccccccccccccccccscccccccccccccccscscscccccccccccccscscs"
       style="stroke-width:0.205224" />
  </g>
  <style
     type="text/css"
     id="style10">
	.st0{fill:#E60012;}
</style>
  <style
     type="text/css"
     id="style72">
	.st0{fill:#E60012;}
</style>
  <style
     type="text/css"
     id="style94">
	.st0{fill:#E60012;}
</style>
  <style
     type="text/css"
     id="style116">
	.st0{fill:#E60012;}
</style>
</svg>
