<?xml version="1.0" encoding="utf-8"?>
<!-- Generator: Adobe Illustrator 25.2.0, SVG Export Plug-In . SVG Version: 6.00 Build 0)  -->
<svg version="1.1" id="_x32_" xmlns="http://www.w3.org/2000/svg" xmlns:xlink="http://www.w3.org/1999/xlink" x="0px" y="0px"
	 viewBox="0 0 1920 1080" style="enable-background:new 0 0 1920 1080;" xml:space="preserve">
<style type="text/css">
	.st0{fill:none;stroke:#FF0000;stroke-width:5;stroke-miterlimit:10;}
</style>
<path class="st0" d="M1586.2,69.6c102.7,12.9,143.8,28.6,160.4,35.3c38.5,15.7,169.6,70.9,250,217.5c73.1,133.2,60.4,261.4,55,305.6
	c-5,43.5-22.3,177.1-128.1,290c-115,122.6-261.5,143.4-310.4,150.1c-30,4.3-52.7,4.7-66.5,5.1c-216.2,5.1-439.3,0.4-558.9,0
	c-231.9-0.8-326.9,14.9-595,1.2c-15-0.8-45.8-0.4-85.8-6.7c-7.7-1.2-135.8-21.9-234.2-90.1C-41.1,898.8-150.8,731.5-135.4,532
	c16.5-216.3,171.9-373.8,311.2-425.2c86.5-32.1,207.7-38,240.8-39.6c37.7-2,52.7-0.8,181.2,0c0,0,63.1,0,188.5,0
	c127.3,0,254.6,2.7,381.9,0C1380.8,63.4,1443.5,51.6,1586.2,69.6z"/>
</svg>
