<?xml version="1.0" encoding="utf-8"?>
<!-- Generator: Adobe Illustrator 25.2.0, SVG Export Plug-In . SVG Version: 6.00 Build 0)  -->
<svg version="1.1" id="_x33_" xmlns="http://www.w3.org/2000/svg" xmlns:xlink="http://www.w3.org/1999/xlink" x="0px" y="0px"
	 viewBox="0 0 1920 1080" style="enable-background:new 0 0 1920 1080;" xml:space="preserve">
<style type="text/css">
	.st0{fill:none;stroke:#FF0000;stroke-width:5;stroke-miterlimit:10;}
</style>
<path class="st0" d="M1668.6-13.7c116.1,15.1,162.7,33.3,181.4,41.1c43.5,18.3,191.9,82.7,282.8,253.7
	c82.7,155.4,68.3,305,62.3,356.7c-5.6,50.8-25.2,206.7-144.8,338.4c-130,143.1-295.8,167.4-351,175.2c-33.9,5-59.6,5.5-75.2,6
	c-244.5,6-496.8,0.5-632.1,0.1c-262.3-0.9-369.7,17.4-673,1.5c-17-0.9-51.8-0.4-97-7.7c-8.7-1.4-153.6-25.6-264.9-105.1
	C-171.7,954.3-295.7,759-278.4,526.3C-259.7,273.8-84,90,73.5,30.1c97.9-37.5,234.9-44.4,272.3-46.2c42.6-2.3,59.6-0.9,204.9,0
	c0,0,71.3,0,213.2,0c144,0,288,3.2,432-0.1C1436.3-20.9,1507.2-34.7,1668.6-13.7z"/>
</svg>
