<?xml version="1.0" encoding="UTF-8" standalone="no"?>
<svg
   xmlns:dc="http://purl.org/dc/elements/1.1/"
   xmlns:cc="http://creativecommons.org/ns#"
   xmlns:rdf="http://www.w3.org/1999/02/22-rdf-syntax-ns#"
   xmlns:svg="http://www.w3.org/2000/svg"
   xmlns="http://www.w3.org/2000/svg"
   xmlns:sodipodi="http://sodipodi.sourceforge.net/DTD/sodipodi-0.dtd"
   xmlns:inkscape="http://www.inkscape.org/namespaces/inkscape"
   width="1920"
   height="1080"
   viewBox="0 0 507.99999 285.75001"
   version="1.1"
   id="svg8"
   inkscape:version="1.0.2-2 (e86c870879, 2021-01-15)"
   sodipodi:docname="pathw4.svg">
  <defs
     id="defs2">
    <pattern
       id="EMFhbasepattern"
       patternUnits="userSpaceOnUse"
       width="6"
       height="6"
       x="0"
       y="0" />
  </defs>
  <sodipodi:namedview
     id="base"
     pagecolor="#ffffff"
     bordercolor="#666666"
     borderopacity="1.0"
     inkscape:pageopacity="0.0"
     inkscape:pageshadow="2"
     inkscape:zoom="0.5"
     inkscape:cx="2.6304703"
     inkscape:cy="210.44015"
     inkscape:document-units="px"
     inkscape:current-layer="layer1"
     inkscape:document-rotation="0"
     showgrid="false"
     units="px"
     showguides="true"
     inkscape:guide-bbox="true"
     inkscape:window-width="1920"
     inkscape:window-height="1057"
     inkscape:window-x="1016"
     inkscape:window-y="-8"
     inkscape:window-maximized="1">
    <sodipodi:guide
       position="0.005905878,285.75"
       orientation="1,0"
       id="guide46" />
    <sodipodi:guide
       position="0.005905878,285.75"
       orientation="0,-1"
       id="guide48" />
  </sodipodi:namedview>
  <metadata
     id="metadata5">
    <rdf:RDF>
      <cc:Work
         rdf:about="">
        <dc:format>image/svg+xml</dc:format>
        <dc:type
           rdf:resource="http://purl.org/dc/dcmitype/StillImage" />
        <dc:title></dc:title>
      </cc:Work>
    </rdf:RDF>
  </metadata>
  <g
     inkscape:label="Layer 1"
     inkscape:groupmode="layer"
     id="layer1">
    <path
       style="fill:none;stroke:#e60012;stroke-width:1.54358px;stroke-linecap:butt;stroke-linejoin:round;stroke-miterlimit:4;stroke-dasharray:none;stroke-opacity:1"
       d="m -154.16033,100.47765 c -25.60142,0.25809 -51.90304,-10.419133 -70.90842,-29.520983 -19.10186,-19.00538 -29.52106,-44.18512 -29.52106,-70.90842424 0,-26.72331576 10.4192,-51.90304576 29.52106,-71.00490576 19.00538,-19.00539 45.30569,-29.512937 70.90842,-29.521057 26.25435,-0.008 49.13955,0.26458 77.082763,0 25.693102,-0.24328 51.388894,-0.14091 77.082762,0 34.113244,0.18709 47.251797,-0.18373 77.082763,0 25.693762,0.15825 47.590622,0.39565 77.082762,0 25.60043,-0.34344 51.90303,10.515667 70.90843,29.521057 19.10186,19.10186 29.52106,44.28159 29.52106,71.00490576 0,26.72330424 -10.4192,51.90304424 -29.52106,70.90842424 -19.0054,19.10185 -42.00587,29.554193 -70.90843,29.520983 -26.49772,-0.0305 -50.02154,0.13666 -77.082762,0 -25.693927,-0.12976 -52.029136,-0.18652 -77.082763,0 -32.752051,0.24383 -50.601927,0.64736 -77.082762,0 -30.457143,-0.744562 -51.628913,-0.2566 -77.082763,0 z"
       id="path133"
       sodipodi:nodetypes="scssssssssscsssss" />
  </g>
  <style
     type="text/css"
     id="style20">
	.st0{fill:none;stroke:#E50012;stroke-width:6.5858;stroke-linejoin:round;stroke-miterlimit:10;}
</style>
  <style
     type="text/css"
     id="style32">
	.st0{fill:none;stroke:#FF0000;stroke-width:5;stroke-miterlimit:10;}
</style>
  <style
     type="text/css"
     id="style10">
	.st0{fill:#E60012;}
</style>
  <style
     type="text/css"
     id="style72">
	.st0{fill:#E60012;}
</style>
  <style
     type="text/css"
     id="style94">
	.st0{fill:#E60012;}
</style>
  <style
     type="text/css"
     id="style116">
	.st0{fill:#E60012;}
</style>
</svg>
