<?xml version="1.0" encoding="utf-8"?>
<!-- Generator: Adobe Illustrator 19.0.0, SVG Export Plug-In . SVG Version: 6.00 Build 0)  -->
<svg version="1.0" id="圖層_1" xmlns="http://www.w3.org/2000/svg" xmlns:xlink="http://www.w3.org/1999/xlink" x="0px" y="0px"
	 width="1920px" height="1080px" viewBox="539 -242.7 1920 1080" style="enable-background:new 539 -242.7 1920 1080;"
	 xml:space="preserve">
<style type="text/css">
	.st0{fill:#E50012;}
</style>
<g id="XMLID_27_">
	<path class="st0" d="M2164.9,24.1c4.7,0,9.4,0.1,14.1,0.3c4.7,0.2,9.4,0.6,14,1c4.6,0.5,9.3,1,13.8,1.7c4.6,0.7,9.2,1.5,13.7,2.4
		c4.5,0.9,9.1,1.9,13.5,3.1c4.5,1.1,8.9,2.4,13.3,3.7c4.4,1.3,8.8,2.8,13.1,4.4c4.3,1.6,8.6,3.2,12.9,5c4.2,1.8,8.5,3.7,12.6,5.6
		c4.1,2,8.3,4.1,12.3,6.3c4.1,2.2,8.1,4.5,12.1,6.9c4,2.4,7.9,4.9,11.8,7.5c3.9,2.6,7.7,5.3,11.4,8.1c3.7,2.8,7.5,5.7,11.1,8.7
		c3.6,3,7.2,6.1,10.7,9.3c3.5,3.2,7,6.5,10.3,9.8c3.4,3.4,6.7,6.8,9.8,10.3c3.2,3.5,6.3,7.1,9.3,10.7c3,3.6,5.9,7.3,8.7,11.1
		c2.8,3.7,5.5,7.6,8.1,11.4c2.6,3.8,5.1,7.8,7.5,11.8c2.4,3.9,4.7,8,6.9,12.1c2.2,4,4.3,8.2,6.3,12.3c2,4.1,3.9,8.4,5.6,12.6
		c1.8,4.2,3.4,8.6,5,12.9c1.6,4.3,3,8.7,4.4,13.1c1.3,4.4,2.6,8.9,3.7,13.3c1.1,4.5,2.2,9,3.1,13.5c0.9,4.5,1.7,9.1,2.4,13.7
		c0.7,4.6,1.3,9.2,1.7,13.8c0.5,4.6,0.8,9.3,1,14c0.2,4.7,0.3,9.4,0.3,14.1c0,4.7-0.1,9.4-0.3,14.1c-0.2,4.7-0.6,9.4-1,14
		c-0.5,4.6-1,9.3-1.7,13.8c-0.7,4.6-1.5,9.2-2.4,13.7c-0.9,4.5-1.9,9.1-3.1,13.5c-1.1,4.5-2.4,8.9-3.7,13.3
		c-1.3,4.4-2.8,8.8-4.4,13.1c-1.6,4.3-3.2,8.6-5,12.9c-1.8,4.2-3.7,8.5-5.6,12.6c-2,4.1-4.1,8.3-6.3,12.3c-2.2,4.1-4.5,8.1-6.9,12.1
		c-2.4,4-4.9,7.9-7.5,11.8c-2.6,3.9-5.3,7.7-8.1,11.4c-2.8,3.7-5.7,7.5-8.7,11.1c-3,3.6-6.1,7.2-9.3,10.7c-3.2,3.5-6.5,7-9.8,10.3
		c-3.4,3.4-6.8,6.7-10.3,9.8c-3.5,3.2-7.1,6.3-10.7,9.3c-3.6,3-7.3,5.9-11.1,8.7c-3.7,2.8-7.6,5.5-11.4,8.1
		c-3.8,2.6-7.8,5.1-11.8,7.5c-3.9,2.4-8,4.7-12.1,6.9c-4.1,2.2-8.2,4.3-12.3,6.3c-4.1,2-8.4,3.9-12.6,5.6c-4.2,1.8-8.6,3.4-12.9,5
		c-4.3,1.6-8.7,3-13.1,4.4c-4.4,1.3-8.9,2.6-13.3,3.7c-4.5,1.1-9,2.2-13.5,3.1c-4.5,0.9-9.1,1.7-13.7,2.4c-4.6,0.7-9.2,1.3-13.8,1.7
		c-4.6,0.5-9.3,0.8-14,1c-4.7,0.2-9.4,0.3-14.1,0.3H2082h-82.9h-82.9h-82.9h-82.9h-82.9h-82.9h-82.9h-82.9h-82.9h-82.9h-82.9H1087
		H1004h-82.9h-82.9c-4.7,0-9.4-0.1-14.1-0.3c-4.7-0.2-9.4-0.6-14-1c-4.6-0.5-9.3-1-13.8-1.7c-4.6-0.7-9.2-1.5-13.7-2.4
		c-4.5-0.9-9.1-1.9-13.5-3.1c-4.4-1.1-8.9-2.4-13.3-3.7c-4.4-1.3-8.8-2.8-13.1-4.4c-4.3-1.6-8.6-3.2-12.9-5
		c-4.2-1.8-8.5-3.7-12.6-5.6c-4.1-2-8.3-4.1-12.3-6.3c-4.1-2.2-8.1-4.5-12.1-6.9c-4-2.4-7.9-4.9-11.8-7.5c-3.8-2.6-7.7-5.3-11.4-8.1
		c-3.7-2.8-7.5-5.7-11.1-8.7c-3.6-3-7.2-6.1-10.7-9.3c-3.5-3.2-7-6.5-10.3-9.8c-3.4-3.4-6.7-6.8-9.8-10.3c-3.2-3.5-6.3-7.1-9.3-10.7
		c-3-3.6-5.9-7.3-8.7-11.1c-2.8-3.7-5.5-7.6-8.1-11.4c-2.6-3.8-5.1-7.8-7.5-11.8c-2.4-4-4.7-8-6.9-12.1c-2.2-4-4.3-8.2-6.3-12.3
		c-2-4.1-3.9-8.4-5.6-12.6c-1.8-4.2-3.4-8.6-5-12.9c-1.6-4.3-3-8.7-4.4-13.1c-1.3-4.4-2.6-8.9-3.7-13.3c-1.1-4.5-2.2-9-3.1-13.5
		c-0.9-4.5-1.7-9.1-2.4-13.7c-0.7-4.6-1.3-9.2-1.7-13.8c-0.5-4.6-0.8-9.3-1-14c-0.2-4.7-0.3-9.4-0.3-14.1s0.1-9.4,0.3-14.1
		c0.2-4.7,0.6-9.4,1-14c0.5-4.6,1-9.3,1.7-13.8c0.7-4.6,1.5-9.2,2.4-13.7c0.9-4.5,1.9-9.1,3.1-13.5c1.1-4.4,2.4-8.9,3.7-13.3
		c1.3-4.4,2.8-8.8,4.4-13.1c1.6-4.3,3.2-8.6,5-12.9c1.8-4.2,3.7-8.5,5.6-12.6c2-4.1,4.1-8.3,6.3-12.3c2.2-4.1,4.5-8.1,6.9-12.1
		c2.4-4,4.9-7.9,7.5-11.8c2.6-3.9,5.3-7.7,8.1-11.4c2.8-3.7,5.7-7.5,8.7-11.1c3-3.6,6.1-7.2,9.3-10.7c3.2-3.5,6.5-7,9.8-10.3
		c3.4-3.4,6.8-6.7,10.3-9.8c3.5-3.2,7.1-6.3,10.7-9.3c3.6-3,7.3-5.9,11.1-8.7c3.7-2.8,7.6-5.5,11.4-8.1c3.8-2.6,7.8-5.1,11.8-7.5
		c3.9-2.4,8-4.7,12.1-6.9c4.1-2.2,8.2-4.3,12.3-6.3c4.1-2,8.4-3.9,12.6-5.6c4.2-1.8,8.6-3.4,12.9-5c4.3-1.6,8.7-3,13.1-4.4
		c4.4-1.3,8.9-2.6,13.3-3.7c4.5-1.1,9-2.2,13.5-3.1c4.5-0.9,9.1-1.7,13.7-2.4c4.6-0.7,9.2-1.3,13.8-1.7c4.6-0.5,9.3-0.8,14-1
		c4.7-0.2,9.4-0.3,14.1-0.3h82.9h82.9h82.9h82.9h82.9h82.9h82.9h82.9h82.9h82.9h82.9h82.9h82.9h82.9h82.9H2164.9 M2164.9,17.4
		c-20.7,0-51.8,0-82.9,0c-31.1,0-62.2,0-82.9,0s-51.8,0-82.9,0s-62.2,0-82.9,0c-20.7,0-51.8,0-82.9,0c-31.1,0-62.2,0-82.9,0
		c-20.7,0-51.8,0-82.9,0c-31.1,0-62.2,0-82.9,0c-20.7,0-51.8,0-82.9,0c-31.1,0-62.2,0-82.9,0c-20.7,0-51.8,0-82.9,0
		c-31.1,0-62.2,0-82.9,0c-20.7,0-51.8,0-82.9,0c-31.1,0-62.2,0-82.9,0c-20.7,0-51.8,0-82.9,0c-31.1,0-62.2,0-82.9,0
		c-4.8,0-9.6,0.1-14.4,0.4c-4.8,0.2-9.6,0.6-14.3,1.1c-4.7,0.5-9.5,1.1-14.2,1.8c-4.7,0.7-9.4,1.5-14,2.4c-4.6,0.9-9.3,2-13.8,3.1
		c-4.6,1.2-9.1,2.4-13.6,3.8c-4.5,1.4-9,2.9-13.4,4.5c-4.4,1.6-8.8,3.3-13.2,5.1c-4.4,1.8-8.7,3.7-12.9,5.8c-4.3,2-8.5,4.2-12.6,6.4
		c-4.2,2.2-8.3,4.6-12.3,7c-4.1,2.4-8.1,5-12,7.7c-4,2.7-7.9,5.4-11.7,8.3c-3.8,2.9-7.6,5.8-11.3,8.9c-3.7,3.1-7.4,6.2-11,9.5
		c-3.6,3.3-7.1,6.6-10.6,10.1c-3.5,3.5-6.8,7-10.1,10.6c-3.3,3.6-6.4,7.2-9.5,11c-3.1,3.7-6,7.5-8.9,11.3c-2.9,3.8-5.6,7.7-8.3,11.7
		c-2.7,4-5.2,8-7.7,12c-2.4,4.1-4.8,8.2-7,12.3c-2.2,4.2-4.4,8.4-6.4,12.6c-2,4.3-3.9,8.6-5.8,12.9c-1.8,4.4-3.5,8.7-5.1,13.2
		s-3.1,8.9-4.5,13.4c-1.4,4.5-2.6,9.1-3.8,13.6c-1.2,4.6-2.2,9.2-3.1,13.8c-0.9,4.6-1.7,9.3-2.4,14c-0.7,4.7-1.3,9.4-1.8,14.2
		c-0.5,4.7-0.8,9.5-1.1,14.3s-0.4,9.6-0.4,14.4c0,4.8,0.1,9.6,0.4,14.4c0.2,4.8,0.6,9.6,1.1,14.3c0.5,4.7,1.1,9.5,1.8,14.2
		c0.7,4.7,1.5,9.4,2.4,14c0.9,4.6,2,9.3,3.1,13.8c1.2,4.6,2.4,9.1,3.8,13.6c1.4,4.5,2.9,9,4.5,13.4c1.6,4.4,3.3,8.8,5.1,13.2
		s3.7,8.7,5.8,12.9c2,4.3,4.2,8.5,6.4,12.6c2.2,4.2,4.6,8.3,7,12.3c2.4,4.1,5,8.1,7.7,12c2.7,4,5.4,7.9,8.3,11.7
		c2.9,3.8,5.8,7.6,8.9,11.3c3.1,3.7,6.2,7.4,9.5,11c3.3,3.6,6.6,7.1,10.1,10.6c3.5,3.5,7,6.8,10.6,10.1c3.6,3.3,7.2,6.4,11,9.5
		c3.7,3.1,7.5,6,11.3,8.9c3.8,2.9,7.7,5.6,11.7,8.3c4,2.7,8,5.2,12,7.7c4.1,2.4,8.2,4.8,12.3,7c4.2,2.2,8.4,4.4,12.6,6.4
		c4.3,2,8.6,3.9,12.9,5.8c4.4,1.8,8.7,3.5,13.2,5.1c4.4,1.6,8.9,3.1,13.4,4.5c4.5,1.4,9.1,2.6,13.6,3.8c4.6,1.2,9.2,2.2,13.8,3.1
		c4.6,0.9,9.3,1.7,14,2.4c4.7,0.7,9.4,1.3,14.2,1.8c4.7,0.5,9.5,0.8,14.3,1.1c4.8,0.2,9.6,0.4,14.4,0.4h82.9h82.9h82.9h82.9h82.9
		h82.9h82.9h82.9h82.9h82.9h82.9h82.9h82.9h82.9h82.9h82.9c4.8,0,9.6-0.1,14.4-0.4c4.8-0.2,9.6-0.6,14.3-1.1
		c4.7-0.5,9.5-1.1,14.2-1.8c4.7-0.7,9.4-1.5,14-2.4c4.6-0.9,9.3-2,13.8-3.1c4.6-1.2,9.1-2.4,13.6-3.8c4.5-1.4,9-2.9,13.4-4.5
		s8.8-3.3,13.2-5.1c4.4-1.8,8.7-3.7,12.9-5.8c4.3-2,8.5-4.2,12.6-6.4c4.2-2.2,8.3-4.6,12.3-7c4.1-2.4,8.1-5,12-7.7
		c4-2.7,7.9-5.4,11.7-8.3c3.8-2.9,7.6-5.8,11.3-8.9c3.7-3.1,7.4-6.2,11-9.5c3.6-3.3,7.1-6.6,10.6-10.1c3.5-3.5,6.8-7,10.1-10.6
		s6.4-7.2,9.5-11c3.1-3.7,6-7.5,8.9-11.3c2.9-3.8,5.6-7.7,8.3-11.7c2.7-4,5.2-8,7.7-12c2.4-4.1,4.8-8.2,7-12.3
		c2.2-4.2,4.4-8.4,6.4-12.6c2-4.3,3.9-8.6,5.8-12.9c1.8-4.4,3.5-8.7,5.1-13.2c1.6-4.4,3.1-8.9,4.5-13.4c1.4-4.5,2.6-9.1,3.8-13.6
		c1.2-4.6,2.2-9.2,3.1-13.8s1.7-9.3,2.4-14c0.7-4.7,1.3-9.4,1.8-14.2c0.5-4.7,0.8-9.5,1.1-14.3c0.2-4.8,0.4-9.6,0.4-14.4
		c0-4.8-0.1-9.6-0.4-14.4c-0.2-4.8-0.6-9.6-1.1-14.3c-0.5-4.7-1.1-9.5-1.8-14.2c-0.7-4.7-1.5-9.4-2.4-14c-0.9-4.6-2-9.3-3.1-13.8
		c-1.2-4.6-2.4-9.1-3.8-13.6c-1.4-4.5-2.9-9-4.5-13.4c-1.6-4.4-3.3-8.8-5.1-13.2c-1.8-4.3-3.7-8.7-5.8-12.9c-2-4.3-4.2-8.5-6.4-12.6
		c-2.2-4.2-4.6-8.3-7-12.3c-2.4-4.1-5-8.1-7.7-12c-2.7-4-5.4-7.9-8.3-11.7c-2.9-3.8-5.8-7.6-8.9-11.3c-3.1-3.7-6.2-7.4-9.5-11
		c-3.3-3.6-6.6-7.1-10.1-10.6c-3.5-3.5-7-6.8-10.6-10.1c-3.6-3.3-7.2-6.4-11-9.5c-3.7-3.1-7.5-6-11.3-8.9c-3.8-2.9-7.7-5.6-11.7-8.3
		s-8-5.2-12-7.7c-4.1-2.4-8.2-4.8-12.3-7c-4.2-2.2-8.4-4.4-12.6-6.4c-4.3-2-8.6-3.9-12.9-5.8c-4.4-1.8-8.7-3.5-13.2-5.1
		c-4.4-1.6-8.9-3.1-13.4-4.5c-4.5-1.4-9.1-2.6-13.6-3.8c-4.6-1.2-9.2-2.2-13.8-3.1c-4.6-0.9-9.3-1.7-14-2.4
		c-4.7-0.7-9.4-1.3-14.2-1.8c-4.7-0.5-9.5-0.8-14.3-1.1C2174.5,17.6,2169.7,17.4,2164.9,17.4L2164.9,17.4z"/>
</g>
</svg>
