<?xml version="1.0" encoding="UTF-8" standalone="no"?>
<svg
   xmlns:dc="http://purl.org/dc/elements/1.1/"
   xmlns:cc="http://creativecommons.org/ns#"
   xmlns:rdf="http://www.w3.org/1999/02/22-rdf-syntax-ns#"
   xmlns:svg="http://www.w3.org/2000/svg"
   xmlns="http://www.w3.org/2000/svg"
   xmlns:sodipodi="http://sodipodi.sourceforge.net/DTD/sodipodi-0.dtd"
   xmlns:inkscape="http://www.inkscape.org/namespaces/inkscape"
   width="1920"
   height="1080"
   viewBox="0 0 507.99999 285.75001"
   version="1.1"
   id="svg8"
   inkscape:version="1.0.2-2 (e86c870879, 2021-01-15)"
   sodipodi:docname="pathw2.svg">
  <defs
     id="defs2">
    <pattern
       id="EMFhbasepattern"
       patternUnits="userSpaceOnUse"
       width="6"
       height="6"
       x="0"
       y="0" />
  </defs>
  <sodipodi:namedview
     id="base"
     pagecolor="#ffffff"
     bordercolor="#666666"
     borderopacity="1.0"
     inkscape:pageopacity="0.0"
     inkscape:pageshadow="2"
     inkscape:zoom="0.7"
     inkscape:cx="115.09112"
     inkscape:cy="43.96739"
     inkscape:document-units="px"
     inkscape:current-layer="layer1"
     inkscape:document-rotation="0"
     showgrid="false"
     units="px"
     showguides="true"
     inkscape:guide-bbox="true"
     inkscape:window-width="1920"
     inkscape:window-height="1057"
     inkscape:window-x="1016"
     inkscape:window-y="-8"
     inkscape:window-maximized="1">
    <sodipodi:guide
       position="0.005905878,285.75"
       orientation="1,0"
       id="guide46" />
    <sodipodi:guide
       position="0.005905878,285.75"
       orientation="0,-1"
       id="guide48" />
  </sodipodi:namedview>
  <metadata
     id="metadata5">
    <rdf:RDF>
      <cc:Work
         rdf:about="">
        <dc:format>image/svg+xml</dc:format>
        <dc:type
           rdf:resource="http://purl.org/dc/dcmitype/StillImage" />
        <dc:title></dc:title>
      </cc:Work>
    </rdf:RDF>
  </metadata>
  <g
     inkscape:label="Layer 1"
     inkscape:groupmode="layer"
     id="layer1">
    <path
       style="fill:none;stroke:#e60012;stroke-width:1.54358px;stroke-linecap:butt;stroke-linejoin:round;stroke-miterlimit:4;stroke-dasharray:none;stroke-opacity:1"
       d="m -154.15386,78.56848 c -20.02321,-0.232428 -40.61558,-8.20028 -55.47258,-23.05729 -14.85701,-14.95348 -23.15377,-34.63419 -23.15377,-55.47257676 0,-20.93487324 8.29676,-40.61558324 23.15377,-55.47258624 14.857,-14.953475 35.43679,-23.366392 55.47258,-23.15377 28.1337,0.298557 48.18127,0 77.082763,0 25.694254,0 51.389383,-0.212103 77.082762,0 32.375992,0.26727 51.389587,0.235423 77.082762,0 29.168763,-0.26727 48.681793,0.03129 77.082763,0 20.0369,-0.02207 40.61556,8.200295 55.47256,23.15377 14.85702,14.857003 23.15378,34.537713 23.15378,55.47258624 0,20.83838676 -8.29676,40.51909676 -23.15378,55.47257676 -14.857,14.85701 -35.44807,23.107474 -55.47256,23.05729 -29.73318,-0.07451 -43.29211,-0.08919 -77.082763,0 -25.547913,0.06743 -52.11171,-0.314347 -77.082762,0 -32.285114,0.40642 -45.129534,-0.683247 -77.082762,0 -36.017993,0.770163 -50.940353,0.30346 -77.082763,0 z"
       id="path129"
       sodipodi:nodetypes="scscssssscscsssss" />
  </g>
  <style
     type="text/css"
     id="style20">
	.st0{fill:none;stroke:#E50012;stroke-width:6.5858;stroke-linejoin:round;stroke-miterlimit:10;}
</style>
  <style
     type="text/css"
     id="style32">
	.st0{fill:none;stroke:#FF0000;stroke-width:5;stroke-miterlimit:10;}
</style>
  <style
     type="text/css"
     id="style10">
	.st0{fill:#E60012;}
</style>
  <style
     type="text/css"
     id="style72">
	.st0{fill:#E60012;}
</style>
  <style
     type="text/css"
     id="style94">
	.st0{fill:#E60012;}
</style>
  <style
     type="text/css"
     id="style116">
	.st0{fill:#E60012;}
</style>
</svg>
