<?xml version="1.0" encoding="utf-8"?>
<!-- Generator: Adobe Illustrator 19.0.0, SVG Export Plug-In . SVG Version: 6.00 Build 0)  -->
<svg version="1.0" id="圖層_1" xmlns="http://www.w3.org/2000/svg" xmlns:xlink="http://www.w3.org/1999/xlink" x="0px" y="0px"
	 width="1920px" height="1080px" viewBox="539 -242.7 1920 1080" style="enable-background:new 539 -242.7 1920 1080;"
	 xml:space="preserve">
<style type="text/css">
	.st0{fill:none;stroke:#E50012;stroke-width:6.5858;stroke-linejoin:round;stroke-miterlimit:10;}
</style>
<path id="XMLID_27_" class="st0" d="M-181,334.5c-9.6,0-19.1-0.5-28.5-1.4s-18.7-2.3-27.9-4.2s-18.3-4.1-27.2-6.9
	s-17.7-5.9-26.4-9.5c-8.6-3.6-17.1-7.6-25.3-12.1c-8.3-4.4-16.3-9.3-24.2-14.6c-7.8-5.3-15.5-10.9-22.8-17
	c-7.4-6.1-14.5-12.5-21.3-19.4c-6.9-6.8-13.3-14-19.4-21.3c-6.1-7.4-11.7-15-17-22.8s-10.1-15.9-14.6-24.2s-8.5-16.7-12.1-25.3
	c-3.6-8.6-6.8-17.4-9.5-26.4c-2.7-8.9-5-18-6.9-27.2s-3.2-18.5-4.2-27.9c-0.9-9.4-1.4-18.9-1.4-28.5s0.5-19.1,1.4-28.5
	s2.3-18.7,4.2-27.9c1.8-9.2,4.1-18.3,6.9-27.2c2.7-8.9,5.9-17.7,9.5-26.4c3.6-8.6,7.6-17.1,12.1-25.3s9.3-16.3,14.6-24.2
	s10.9-15.5,17-22.8c6.1-7.4,12.5-14.5,19.4-21.3c6.9-6.9,14-13.3,21.3-19.4c7.4-6.1,15-11.7,22.8-17c7.8-5.3,15.9-10.1,24.2-14.6
	c8.3-4.4,16.7-8.5,25.3-12.1s17.4-6.8,26.4-9.5c8.9-2.7,18-5,27.2-6.9s18.5-3.2,27.9-4.2c9.4-0.9,18.9-1.4,28.5-1.4h164.4h164.4
	h164.4h164.4h164.4h164.4H970h164.4c9.6,0,19.1,0.5,28.5,1.4s18.7,2.3,27.9,4.2c9.2,1.8,18.3,4.1,27.2,6.9
	c8.9,2.7,17.7,5.9,26.4,9.5c8.6,3.6,17.1,7.6,25.3,12.1c8.3,4.4,16.3,9.3,24.2,14.6c7.8,5.3,15.5,10.9,22.8,17
	c7.4,6.1,14.5,12.5,21.3,19.4c6.8,6.9,13.3,14,19.4,21.3c6.1,7.4,11.7,15,17,22.8s10.1,15.9,14.6,24.2s8.5,16.7,12.1,25.3
	s6.8,17.4,9.5,26.4c2.7,8.9,5,18,6.9,27.2c1.8,9.2,3.2,18.5,4.2,27.9s1.4,18.9,1.4,28.5s-0.5,19.1-1.4,28.5s-2.3,18.7-4.2,27.9
	c-1.8,9.2-4.1,18.3-6.9,27.2c-2.7,8.9-5.9,17.7-9.5,26.4c-3.6,8.6-7.6,17.1-12.1,25.3s-9.3,16.3-14.6,24.2
	c-5.3,7.8-10.9,15.5-17,22.8c-6.1,7.4-12.5,14.5-19.4,21.3c-6.8,6.8-14,13.3-21.3,19.4c-7.4,6.1-15,11.7-22.8,17
	c-7.8,5.3-15.9,10.1-24.2,14.6c-8.3,4.4-16.7,8.5-25.3,12.1s-17.4,6.8-26.4,9.5c-8.9,2.7-18,5-27.2,6.9c-9.2,1.8-18.5,3.2-27.9,4.2
	c-9.4,0.9-18.9,1.4-28.5,1.4H970H805.6H641.1H476.7H312.3H147.9H-16.6L-181,334.5L-181,334.5L-181,334.5L-181,334.5L-181,334.5
	L-181,334.5L-181,334.5L-181,334.5L-181,334.5z"/>
</svg>
