<?xml version="1.0" encoding="UTF-8" standalone="no"?>
<svg
   xmlns:dc="http://purl.org/dc/elements/1.1/"
   xmlns:cc="http://creativecommons.org/ns#"
   xmlns:rdf="http://www.w3.org/1999/02/22-rdf-syntax-ns#"
   xmlns:svg="http://www.w3.org/2000/svg"
   xmlns="http://www.w3.org/2000/svg"
   xmlns:sodipodi="http://sodipodi.sourceforge.net/DTD/sodipodi-0.dtd"
   xmlns:inkscape="http://www.inkscape.org/namespaces/inkscape"
   width="1920"
   height="1080"
   viewBox="0 0 507.99999 285.75001"
   version="1.1"
   id="svg8"
   inkscape:version="1.0.2-2 (e86c870879, 2021-01-15)"
   sodipodi:docname="pp1.svg">
  <defs
     id="defs2" />
  <sodipodi:namedview
     id="base"
     pagecolor="#ffffff"
     bordercolor="#666666"
     borderopacity="1.0"
     inkscape:pageopacity="0.0"
     inkscape:pageshadow="2"
     inkscape:zoom="0.49497475"
     inkscape:cx="599.84715"
     inkscape:cy="544.56339"
     inkscape:document-units="mm"
     inkscape:current-layer="layer1"
     inkscape:document-rotation="0"
     showgrid="false"
     units="px"
     showguides="true"
     inkscape:guide-bbox="true"
     inkscape:window-width="1920"
     inkscape:window-height="1057"
     inkscape:window-x="1016"
     inkscape:window-y="-8"
     inkscape:window-maximized="1" />
  <metadata
     id="metadata5">
    <rdf:RDF>
      <cc:Work
         rdf:about="">
        <dc:format>image/svg+xml</dc:format>
        <dc:type
           rdf:resource="http://purl.org/dc/dcmitype/StillImage" />
        <dc:title></dc:title>
      </cc:Work>
    </rdf:RDF>
  </metadata>
  <g
     inkscape:label="Layer 1"
     inkscape:groupmode="layer"
     id="layer1">
    <path
       id="XMLID_19_"
       class="st0"
       d="m 430.49154,69.176742 c 19.97703,0 38.81249,7.859168 53.08183,22.128433 14.26928,14.269355 22.12836,33.104815 22.12836,53.081835 0,19.97703 -7.85908,38.81246 -22.12836,53.08182 -14.26934,14.26926 -33.1048,22.12843 -53.08183,22.12843 H 408.56622 386.64084 364.71553 342.7902 320.8648 298.9395 277.01416 255.08886 233.16355 211.23814 189.31282 167.38751 145.4622 123.5368 101.61148 79.686163 c -19.977046,0 -38.812517,-7.85917 -53.081843,-22.12843 C 12.335029,183.19947 4.4759298,164.36404 4.4759298,144.38701 c 0,-19.97702 7.8590992,-38.81248 22.1283902,-53.081835 C 40.873646,77.03591 59.709117,69.176742 79.686163,69.176742 h 21.925317 21.92532 21.9254 21.92531 21.92531 21.92532 21.92541 21.92531 21.9253 21.92534 21.9253 21.9254 21.92533 21.92531 21.92538 21.92532 m 0,-1.756177 H 408.56622 386.64084 364.71553 342.7902 320.8648 298.9395 277.01416 255.08886 233.16355 211.23814 189.31282 167.38751 145.4622 123.5368 101.61148 79.686163 c -20.416093,0 -39.734546,8.034715 -54.311189,22.655229 C 10.75442,104.6964 2.7197054,123.97093 2.7197054,144.38701 c 0,20.41609 8.0347146,39.73451 22.6552686,54.31118 14.620556,14.62053 33.895096,22.65525 54.311189,22.65525 h 21.925317 21.92532 21.9254 21.92531 21.92531 21.92532 21.92541 21.92531 21.9253 21.92534 21.9253 21.9254 21.92533 21.92531 21.92538 21.92532 c 20.41608,0 39.73451,-8.03472 54.31113,-22.65525 14.62059,-14.62058 22.65531,-33.89509 22.65531,-54.31118 0,-20.41608 -8.03472,-39.73451 -22.65531,-54.311216 C 470.18216,75.45528 450.90762,67.420565 430.49154,67.420565 Z"
       style="fill:#ff0000;stroke:none;stroke-width:0.439055" />
  </g>
</svg>
