<svg version="1.0" xmlns="http://www.w3.org/2000/svg" xmlns:xlink="http://www.w3.org/1999/xlink" 
viewBox="0 0 8421.3 479" >

	<path d="M177.5,276.3c3.3-26.7,7.3-37.4,9-41.7c4-10,18.1-44.1,55.5-65c34-19,66.7-15.7,78-14.3
		c11.1,1.3,45.2,5.8,74,33.3c31.3,29.9,36.6,68,38.3,80.7c1.1,7.8,1.2,13.7,1.3,17.3c1.3,56.2,0.1,114.2,0,145.3
		c-0.2,60.3,3.8,85,0.3,154.7c-0.2,3.9-0.1,11.9-1.7,22.3c-0.3,2-5.6,35.3-23,60.9c-20.1,29.6-62.8,58.1-113.7,54.1
		c-55.2-4.3-95.4-44.7-108.5-80.9c-8.2-22.5-9.7-54-10.1-62.6c-0.5-9.8-0.2-13.7,0-47.1c0,0,0-16.4,0-49c0-33.1,0.7-66.2,0-99.3
		C175.9,329.7,172.9,313.4,177.5,276.3z"/>
	<path d="M161.8,268.1c3.7-28.1,8.1-39.4,10-43.9c4.4-10.6,20.2-46.5,61.9-68.6
		c38-20.1,74.4-16.5,87.1-15.1c12.4,1.4,50.4,6.1,82.6,35.2c34.9,31.5,40.8,71.7,42.8,85.1c1.2,8.3,1.4,14.5,1.5,18.3
		c1.5,59.3,0.1,120.5,0,153.3c-0.2,63.6,4.2,89.7,0.4,163.1c-0.2,4.1-0.1,12.6-1.9,23.6c-0.3,2.1-6.2,37.3-25.6,64.2
		c-22.5,31.2-70.1,61.2-126.9,57.1c-61.6-4.5-106.5-47.2-121.2-85.3c-9.1-23.7-10.8-56.9-11.3-66.1c-0.5-10.3-0.2-14.5,0-49.7
		c0,0,0-17.2,0-51.7c0-34.9,0.7-69.9,0-104.8C160,324.4,156.6,307.2,161.8,268.1z"/>


</svg>
