<?xml version="1.0" encoding="utf-8"?>
<svg version="1.1"  xmlns="http://www.w3.org/2000/svg" xmlns:xlink="http://www.w3.org/1999/xlink" x="0px" y="0px"
	 width="1920px" height="1080px" viewBox="0 0 1920 1080" style="enable-background:new 0 0 1920 1080;" xml:space="preserve">
	 <style type="text/css">
	.st0{fill:none;stroke:#FF0000;stroke-width:5;stroke-miterlimit:10;}
</style>
<path class="st0" d="M1497.92,137.33c88.33,10.92,123.73,24.15,137.96,29.78c33.08,13.23,145.9,59.88,215.04,183.61
	c62.86,112.48,51.94,220.67,47.31,258.05c-4.3,36.72-19.19,149.54-110.17,244.82c-98.92,103.55-224.97,121.09-266.99,126.71
	c-25.81,3.64-45.32,3.97-57.23,4.3c-185.93,4.3-377.82,0.33-480.71,0c-199.49-0.66-281.21,12.57-511.81,0.99
	c-12.9-0.66-39.37-0.33-73.78-5.62c-6.62-0.99-116.79-18.53-201.48-76.09C98.15,837.38,3.86,696.11,17.1,527.72
	C31.32,345.09,164.98,212.1,284.74,168.76c74.44-27.13,178.65-32.09,207.1-33.41c32.42-1.65,45.32-0.66,155.82,0
	c0,0,54.26,0,162.11,0c109.51,0,219.01,2.32,328.52,0C1321.26,132.03,1375.18,122.11,1497.92,137.33z"/>
</svg>
