<?xml version="1.0" encoding="UTF-8" standalone="no"?>
<svg
   xmlns:dc="http://purl.org/dc/elements/1.1/"
   xmlns:cc="http://creativecommons.org/ns#"
   xmlns:rdf="http://www.w3.org/1999/02/22-rdf-syntax-ns#"
   xmlns:svg="http://www.w3.org/2000/svg"
   xmlns="http://www.w3.org/2000/svg"
   xmlns:sodipodi="http://sodipodi.sourceforge.net/DTD/sodipodi-0.dtd"
   xmlns:inkscape="http://www.inkscape.org/namespaces/inkscape"
   id="svg8"
   version="1.1"
   viewBox="0 0 210 297"
   height="297mm"
   width="210mm"
   sodipodi:docname="runway4.svg"
   inkscape:version="1.0.2-2 (e86c870879, 2021-01-15)">
  <defs
     id="defs2" />
  <sodipodi:namedview
     id="base"
     pagecolor="#ffffff"
     bordercolor="#666666"
     borderopacity="1.0"
     inkscape:pageopacity="0.0"
     inkscape:pageshadow="2"
     inkscape:zoom="0.35"
     inkscape:cx="400"
     inkscape:cy="560"
     inkscape:document-units="mm"
     inkscape:current-layer="layer1"
     inkscape:document-rotation="0"
     showgrid="false"
     inkscape:window-width="1299"
     inkscape:window-height="744"
     inkscape:window-x="1972"
     inkscape:window-y="164"
     inkscape:window-maximized="0" />
  <metadata
     id="metadata5">
    <rdf:RDF>
      <cc:Work
         rdf:about="">
        <dc:format>image/svg+xml</dc:format>
        <dc:type
           rdf:resource="http://purl.org/dc/dcmitype/StillImage" />
        <dc:title></dc:title>
      </cc:Work>
    </rdf:RDF>
  </metadata>
  <g
     inkscape:label="Layer 1"
     inkscape:groupmode="layer"
     id="layer1">
    <path
       class="st0"
       d="M 210.646 -15.7542 L 218.77 -14.6472 L 225.68 -13.5136 L 231.473 -12.3842 L 236.249 -11.2897 L 240.106 -10.2608 L 243.143 -9.32816 L 247.148 -7.8749 L 251.356 -6.12519 L 257.158 -3.41113 L 264.173 0.402642 L 268.016 2.76422 L 272.018 5.4515 L 276.133 8.48139 L 280.311 11.8708 L 284.505 15.6367 L 288.668 19.796 L 292.751 24.3655 L 296.706 29.3623 L 300.487 34.8033 L 304.044 40.7052 L 306.939 46.2677 L 309.407 51.7778 L 311.48 57.2097 L 313.189 62.5377 L 314.564 67.7359 L 315.637 72.7786 L 316.438 77.6401 L 316.999 82.2944 L 317.351 86.716 L 317.525 90.8788 L 317.461 98.3255 L 317.058 104.428 L 316.562 108.981 L 315.97 113.52 L 314.912 119.656 L 313.186 127.099 L 312.008 131.22 L 310.587 135.558 L 308.898 140.079 L 306.914 144.744 L 304.611 149.519 L 301.962 154.366 L 298.944 159.25 L 295.53 164.134 L 291.694 168.981 L 287.413 173.756 L 282.428 178.631 L 277.319 183.002 L 272.127 186.897 L 266.897 190.344 L 261.67 193.373 L 256.491 196.012 L 251.402 198.29 L 246.446 200.235 L 241.667 201.877 L 237.107 203.245 L 232.81 204.365 L 228.819 205.269 L 221.925 206.538 L 216.771 207.282 L 211.968 207.853 L 207.821 208.179 L 201.629 208.419 L 183.157 208.75 L 164.831 208.912 L 129.796 208.879 L 74.4415 208.419 L 55.9712 208.506 L 39.5953 208.817 L 9.81998 209.634 L -5.23306 209.899 L -21.4987 209.908 L -39.8037 209.543 L -60.9749 208.681 L -68.6012 208.397 L -74.0848 207.993 L -80.4959 207.194 L -86.4132 206.08 L -92.2244 204.725 L -99.404 202.741 L -107.552 200.056 L -111.864 198.427 L -116.268 196.596 L -120.714 194.553 L -125.152 192.289 L -129.532 189.795 L -133.804 187.062 L -138.643 183.534 L -143.42 179.561 L -148.094 175.162 L -152.624 170.354 L -156.971 165.156 L -161.094 159.587 L -164.953 153.665 L -168.507 147.409 L -171.717 140.837 L -174.542 133.967 L -176.942 126.818 L -178.876 119.409 L -180.305 111.758 L -181.188 103.883 L -181.412 99.8675 L -181.484 95.8031 L -181.4 91.692 L -181.154 87.5365 L -180.71 83.0452 L -180.087 78.6328 L -179.292 74.3013 L -178.331 70.0525 L -177.21 65.8884 L -175.937 61.811 L -174.518 57.8222 L -172.958 53.9239 L -171.265 50.118 L -169.445 46.4066 L -165.45 39.2747 L -161.024 32.5436 L -156.219 26.2289 L -151.087 20.3461 L -145.679 14.9107 L -140.048 9.93814 L -134.244 5.44402 L -128.32 1.4438 L -122.327 -2.047 L -116.317 -5.01288 L -110.341 -7.43834 L -106.562 -8.7167 L -102.64 -9.86476 L -94.5286 -11.7987 L -86.3328 -13.2977 L -78.3802 -14.419 L -70.998 -15.2203 L -64.5133 -15.7589 L -55.5457 -16.2781 L -49.5965 -16.4868 L -42.679 -16.5073 L -14.3183 -16.2781 L 28.5733 -16.2781 L 72.0338 -16.0479 L 93.7638 -16.0191 L 115.494 -16.2781 L 132.15 -16.6729 L 146.218 -17.1331 L 169.046 -17.8556 L 179.033 -17.9212 L 188.886 -17.6584 L 199.22 -16.9689 L 210.646 -15.7542 L 210.646 -15.7542"
       id="path12" />
  </g>
  <style
     type="text/css"
     id="style10">
	.st0{fill:none;stroke:#FF0000;stroke-width:5;stroke-miterlimit:10;}
</style>
</svg>
