<?xml version="1.0" encoding="utf-8"?>
<!-- Generator: Adobe Illustrator 25.2.0, SVG Export Plug-In . SVG Version: 6.00 Build 0)  -->
<svg version="1.1" id="圖層_2" xmlns="http://www.w3.org/2000/svg" xmlns:xlink="http://www.w3.org/1999/xlink" x="0px" y="0px"
	 viewBox="0 0 1920 1080" style="enable-background:new 0 0 1920 1080;" xml:space="preserve">
<style type="text/css">
	.st0{fill:none;stroke:#FF0000;stroke-width:5;stroke-miterlimit:10;}
</style>
<path class="st0" d="M1570.8,80.4c100.3,12.4,140.5,27.4,156.6,33.8c37.6,15,165.6,68,244.1,208.5c71.4,127.7,59,250.5,53.7,293
	c-4.9,41.7-21.8,169.8-125.1,278c-112.3,117.6-255.4,137.5-303.1,143.9c-29.3,4.1-51.5,4.5-65,4.9c-211.1,4.9-429,0.4-545.8,0
	c-226.5-0.7-319.3,14.3-581.1,1.1c-14.6-0.7-44.7-0.4-83.8-6.4c-7.5-1.1-132.6-21-228.7-86.4c-111.2-75.5-218.2-235.9-203.2-427.1
	c16.1-207.3,167.9-358.3,303.9-407.5C278,85.3,396.3,79.7,428.6,78.2c36.8-1.9,51.5-0.7,176.9,0c0,0,61.6,0,184,0
	c124.3,0,248.6,2.6,373,0C1370.3,74.4,1431.5,63.1,1570.8,80.4z"/>
</svg>
