<?xml version="1.0" encoding="utf-8"?>
<!-- Generator: Adobe Illustrator 25.2.0, SVG Export Plug-In . SVG Version: 6.00 Build 0)  -->
<svg version="1.1" id="圖層_1" xmlns="http://www.w3.org/2000/svg" xmlns:xlink="http://www.w3.org/1999/xlink" x="0px" y="0px"
	 width="1920px" height="1080px" viewBox="0 0 1920 1080" style="enable-background:new 0 0 1920 1080;" xml:space="preserve">
<style type="text/css">
	.st0{fill:none;stroke:#FF0000;stroke-width:5;stroke-miterlimit:10;}
</style>
<path class="st0" d="M1126.98,428.03c27.54,3.4,38.58,7.53,43.02,9.28c10.32,4.13,45.49,18.67,67.05,57.25
	c19.6,35.07,16.2,68.8,14.75,80.46c-1.34,11.45-5.98,46.63-34.35,76.33c-30.84,32.29-70.14,37.75-83.24,39.51
	c-8.05,1.13-14.13,1.24-17.85,1.34c-57.97,1.34-117.8,0.1-149.88,0c-62.2-0.21-87.68,3.92-159.58,0.31c-4.02-0.21-12.28-0.1-23-1.75
	c-2.06-0.31-36.41-5.78-62.82-23.73c-30.53-20.73-59.93-64.78-55.81-117.29c4.44-56.94,46.11-98.41,83.45-111.92
	c23.21-8.46,55.7-10.01,64.57-10.42c10.11-0.52,14.13-0.21,48.59,0c0,0,16.92,0,50.55,0c34.14,0,68.29,0.72,102.43,0
	C1071.9,426.38,1088.71,423.28,1126.98,428.03z"/>
</svg>
